/* XPM */
static char * empty_xpm[] = {
"32 32 2 1",
" 	c #ACDA4F",
".	c #7BA922",
"                                ",
"                                ",
"                                ",
".                       .       ",
"..                     ... ... .",
" .                     .  .  .. ",
"                                ",
"                                ",
"                                ",
"                                ",
"                                ",
"        ..  .  ..               ",
"       . ... ..  .              ",
"              .                 ",
"                                ",
"                                ",
"                                ",
"                                ",
"                                ",
"                                ",
".  ..                      ... .",
" ..  .                     . .. ",
"                                ",
"                                ",
"                                ",
"                                ",
"              .  ..  ..         ",
"             . ... .. ..        ",
"                .               ",
"                                ",
"                                ",
"                                "};
