/* XPM */
static char * exit_xpm[] = {
"32 32 289 2",
"  	c #ACDA4F",
". 	c #7BA922",
"+ 	c #A9805E",
"@ 	c #967153",
"# 	c #7E5D43",
"$ 	c #805F45",
"% 	c #74553D",
"& 	c #A97F5E",
"* 	c #A47856",
"= 	c #A98B5D",
"- 	c #6D5039",
"; 	c #967053",
"> 	c #9B7456",
", 	c #9A7455",
"' 	c #A77D5D",
") 	c #A57C5C",
"! 	c #A47B5B",
"~ 	c #9D7657",
"{ 	c #926E51",
"] 	c #977A52",
"^ 	c #99BA47",
"/ 	c #8BA342",
"( 	c #7B5B42",
"_ 	c #926D50",
": 	c #A17959",
"< 	c #A07858",
"[ 	c #846247",
"} 	c #8A684C",
"| 	c #916747",
"1 	c #A27A5A",
"2 	c #A07959",
"3 	c #87654A",
"4 	c #5E4432",
"5 	c #664C37",
"6 	c #4A3628",
"7 	c #A87F5E",
"8 	c #8E6A4E",
"9 	c #8E6B4E",
"0 	c #A9865D",
"a 	c #9E7657",
"b 	c #89664B",
"c 	c #A67E5D",
"d 	c #9E7758",
"e 	c #77563E",
"f 	c #674B35",
"g 	c #604632",
"h 	c #9C7556",
"i 	c #7B573C",
"j 	c #654832",
"k 	c #634732",
"l 	c #583F2C",
"m 	c #553D2B",
"n 	c #614630",
"o 	c #9D7656",
"p 	c #936E51",
"q 	c #8B684C",
"r 	c #928B4C",
"s 	c #856348",
"t 	c #775840",
"u 	c #A57D5C",
"v 	c #714D32",
"w 	c #734E33",
"x 	c #664A33",
"y 	c #644832",
"z 	c #734F33",
"A 	c #674932",
"B 	c #765033",
"C 	c #6F4D33",
"D 	c #6E4C32",
"E 	c #8E6648",
"F 	c #A19E54",
"G 	c #8DA642",
"H 	c #75563E",
"I 	c #815F45",
"J 	c #654933",
"K 	c #634832",
"L 	c #64462F",
"M 	c #9B7556",
"N 	c #4B3525",
"O 	c #3C2B20",
"P 	c #29201A",
"Q 	c #33261C",
"R 	c #33261D",
"S 	c #4E3625",
"T 	c #3C2C1F",
"U 	c #422D1F",
"V 	c #37271C",
"W 	c #624028",
"X 	c #926848",
"Y 	c #744F33",
"Z 	c #6A4A32",
"` 	c #886041",
" .	c #7C5A3E",
"..	c #77573F",
"+.	c #6B4B32",
"@.	c #473324",
"#.	c #3F2E22",
"$.	c #34251C",
"%.	c #35271D",
"&.	c #31241B",
"*.	c #32241B",
"=.	c #31251B",
"-.	c #30241C",
";.	c #2A1F19",
">.	c #2E2119",
",.	c #32231A",
"'.	c #271E18",
").	c #33251C",
"!.	c #503522",
"~.	c #8E5B34",
"{.	c #805433",
"].	c #8C6648",
"^.	c #987254",
"/.	c #6C4F39",
"(.	c #70523B",
"_.	c #8B674C",
":.	c #745239",
"<.	c #744E33",
"[.	c #684932",
"}.	c #211B17",
"|.	c #1B1817",
"1.	c #191716",
"2.	c #1E1A17",
"3.	c #1A1816",
"4.	c #2E211A",
"5.	c #1F1A17",
"6.	c #3E291C",
"7.	c #4E3320",
"8.	c #33241A",
"9.	c #2A1F18",
"0.	c #4A311E",
"a.	c #93623D",
"b.	c #9E7757",
"c.	c #745238",
"d.	c #7D5C43",
"e.	c #7C5C42",
"f.	c #845836",
"g.	c #60422B",
"h.	c #442F20",
"i.	c #1B1916",
"j.	c #1F1B17",
"k.	c #211B18",
"l.	c #221C18",
"m.	c #261D19",
"n.	c #271E19",
"o.	c #1C1816",
"p.	c #1A1716",
"q.	c #1D1917",
"r.	c #241C17",
"s.	c #4B3221",
"t.	c #775033",
"u.	c #674A32",
"v.	c #A67B5A",
"w.	c #997355",
"x.	c #82923E",
"y.	c #5F3D25",
"z.	c #402B1D",
"A.	c #251D17",
"B.	c #201A17",
"C.	c #1B1816",
"D.	c #241D19",
"E.	c #231B17",
"F.	c #221C17",
"G.	c #231C18",
"H.	c #523521",
"I.	c #956A4A",
"J.	c #9FC54A",
"K.	c #675634",
"L.	c #795941",
"M.	c #6E513A",
"N.	c #A87E5D",
"O.	c #412C1D",
"P.	c #2D2119",
"Q.	c #221B17",
"R.	c #1B1917",
"S.	c #1C1917",
"T.	c #1F1A18",
"U.	c #2A211A",
"V.	c #221B18",
"W.	c #31221A",
"X.	c #9C6F4D",
"Y.	c #805F46",
"Z.	c #94B245",
"`.	c #634A32",
" +	c #6A4D37",
".+	c #A47958",
"++	c #7C4F2E",
"@+	c #654227",
"#+	c #3C291C",
"$+	c #181716",
"%+	c #4C3220",
"&+	c #88654A",
"*+	c #7A5A43",
"=+	c #767A39",
"-+	c #A3CC4B",
";+	c #6F6936",
">+	c #634834",
",+	c #644934",
"'+	c #624732",
")+	c #8F6A4F",
"!+	c #9C7150",
"~+	c #583A23",
"{+	c #2B1F18",
"]+	c #1C1916",
"^+	c #191816",
"/+	c #37271D",
"(+	c #412B1D",
"_+	c #6B4D37",
":+	c #634833",
"<+	c #6D503A",
"[+	c #6F6A37",
"}+	c #7D893C",
"|+	c #727138",
"1+	c #624832",
"2+	c #644933",
"3+	c #846248",
"4+	c #9F7250",
"5+	c #956642",
"6+	c #724E33",
"7+	c #664A35",
"8+	c #563F2C",
"9+	c #604631",
"0+	c #6A6E2E",
"a+	c #645231",
"b+	c #654A35",
"c+	c #72543D",
"d+	c #5C432F",
"e+	c #9A7456",
"f+	c #88664A",
"g+	c #9F7858",
"h+	c #523B2A",
"i+	c #5B422F",
"j+	c #624A32",
"k+	c #808E3D",
"l+	c #684B36",
"m+	c #88664B",
"n+	c #674C36",
"o+	c #75563F",
"p+	c #A37A5A",
"q+	c #70533C",
"r+	c #5F4531",
"s+	c #674A35",
"t+	c #8F6C4F",
"u+	c #5C422F",
"v+	c #84943F",
"w+	c #675534",
"x+	c #644C33",
"y+	c #6A5D35",
"z+	c #655133",
"A+	c #71533C",
"B+	c #946F52",
"C+	c #795A41",
"D+	c #806046",
"E+	c #8D694D",
"F+	c #9D7658",
"G+	c #946E52",
"H+	c #5D432F",
"I+	c #946E51",
"J+	c #76583F",
"K+	c #604531",
"L+	c #6E6736",
"M+	c #6D6436",
"N+	c #7A833B",
"O+	c #695C35",
"P+	c #7A5B43",
"Q+	c #6B4F39",
"R+	c #8D6A4F",
"S+	c #71543D",
"T+	c #684C36",
"U+	c #7E8A3C",
"V+	c #573F2C",
"W+	c #4F3928",
"X+	c #563E2C",
"Y+	c #573F2D",
"Z+	c #A8D34D",
"`+	c #808D3D",
" @	c #5E4530",
".@	c #5A412D",
"+@	c #665333",
"@@	c #7A823B",
"#@	c #9BBE48",
"$@	c #634C32",
"%@	c #624932",
"&@	c #645131",
"*@	c #634D32",
"=@	c #6D6536",
"-@	c #879C40",
";@	c #634B32",
">@	c #757739",
"                                                                ",
"                                                                ",
"                                                                ",
".                                               .               ",
". .                                           . . .   . . .   . ",
"  .                                           .     .     . .   ",
"                                                                ",
"                    + @ # $ % & & * & & + +                     ",
"              = - & & ; > , ' & & ) ! ~ { { & + ] ^             ",
"          / ( % _ : < [ } , | 1 2 3 4 5 6 3 7 & 8 9             ",
"        0 a b c 7 d e f g ~ h i j k j l m n d o p $ q 0         ",
"      r & s $ t u ! v w x y z A y j B C D E : 3 j & _ $ F       ",
"    G H & I J K L M N O P O Q R S T U V W X Y Z Z ` & $ q       ",
"     .; & ..y +.@.#.$.%.&.&.*.=.-.;.>.,.'.).!.~.{.].^./.(.2     ",
"    _.8 :.y Z <.[.}.|.|.1.|.2.3.4.5.}.6.7.8.9.0.a.b.K c.d.e.    ",
"    a a f.Y ~.g.h.1.1.i.j.k.l.m.}.n.o.p.q.m.r.s.t.D u.v.& w.    ",
"  x.; , ; ~.y.z.A.B.p.C.1.3.p.p.D.1.o.E.F.G.>.H.~.I.& & & &     ",
"J.K.L.M.; N.O.P.Q.C.3.C.3.R.S.q.S.T.3.S.U.G.V.W.X.& & & ^.Y.Z.  ",
"J.`.3  +; & .+++@+#+1.$+$+$+$+$+$+$+1.1.1.1.1.%+X.& _ b &+*+=+G ",
"-+;+>+,+'+(.)+!+.+X.~+{+]+o.C.1.^+1.p.C.E./+(+_+& ^.:+<+8 :+[+}+",
". |+1+'+'+2+Y.3+N.& 4+5+v..+.+d.6+5+~.d d d d d ! /.7+f 8+9+`.0+",
"  . a+9+'+b+c+d+e+& & & & & & & & & & & f+b & & h g+h+i+'+j+1+k+",
"    =+1+'+'+'+l+g+m+M.n+M.o+^.p+& & ( q+r+s+( & t+u+'+'+v+w+x+x.",
"    y+z+`.'+'+A+B+'+'+g C+M.D+E+F+G+t H+'+'+'+I+J+K+'+1+  L+M+Z.",
"    [+N+O+x.1+'+'+'+'+'+'+P+Q+^.R+R+S+'+'+'+'+E+T+'+x+U+    -+  ",
"          ^ ^ K.1+'+'+'+'+'+V+W+h+X+Y+'+'+'+'+1+'+'+1+x.        ",
"          Z+`+1+'+`. @1+'+'+'+9+.@'+'+'+1+1+.   ;+1++@U+Z.      ",
"              @@x+#@-+  x.$@+@%@&@*@L+. .   . .   #@=@=+        ",
"                          -@=+1+1+;@L+Z.                        ",
"                              #@x.>@                            ",
"                                                                ",
"                                                                "};
