/* XPM */
static char * wall_xpm[] = {
"32 32 4 1",
" 	c #7E8181",
".	c #525E62",
"+	c #535E61",
"@	c #545F62",
"            .+       +++        ",
"            ++       ++         ",
"+           +++    ++++         ",
"+            +++++++++       +++",
"++++         +++++++++++++++++++",
"++++         +++++++++++++++++++",
"+++++        +++++++         +++",
"  +++        ++                 ",
"  +++        ++                 ",
"  +++        ++                 ",
"  +++        ++                 ",
"  +++        ++                 ",
"  +++        ++                 ",
"  +++        ++                 ",
"   ++++++++++++++++++++++       ",
"   +++++++++++++++++++++++      ",
"     ++                 ++      ",
"     ++                 ++      ",
"     ++                 ++      ",
"     ++                 +++     ",
"     ++                  ++     ",
"     ++++++++++++++++++  ++     ",
"     ++++++++++++++++++++++     ",
" @+++++++   ++++      +++++     ",
"+++++       +++         +++     ",
"+           +++         +++ ++++",
"            +++         ++++++++",
"            +++         +++     ",
"            ++          ++      ",
"            ++          ++      ",
"            ++          ++      ",
"            ++         +++      "};
