/* XPM */
static char * player_back2_xpm[] = {
"32 32 24 1",
" 	c #ACDA4F",
".	c #222124",
"+	c #7BA922",
"@	c #B9A48F",
"#	c #241D0D",
"$	c #928263",
"%	c #82634B",
"&	c #A99D86",
"*	c #8A7357",
"=	c #714333",
"-	c #A38D77",
";	c #000000",
">	c #8C7A67",
",	c #B59D85",
"'	c #97C045",
")	c #81A439",
"!	c #799A35",
"~	c #81A53A",
"{	c #98C145",
"]	c #87AB3C",
"^	c #7EA038",
"/	c #7A9C36",
"(	c #799A36",
"_	c #86AB3C",
"                                ",
"                                ",
"            ..    ..            ",
"+          .@@.  .@@.   +       ",
"++         .@@.  .@@.  +++ +++ +",
" +         .@@.##.@@.  +  +  ++ ",
"          #.@@.$$.@@.#          ",
"        ##%.@&$$$$&@.%##        ",
"      ##*#=%$$$$$$$$%=#*##      ",
"     #$**#============#**$#     ",
"     #$$$*%==========%$$$$#     ",
"      #$$$$$$$$$$$$$$$$$$#      ",
"       ###*$$$$$$$$$$*###       ",
"        .@############@.        ",
"       .@@@@@@@@@@@@@@@@.       ",
"       .@@@@@@@@@@@@@@@@.       ",
"       .-@@@@@@@@@@@@@@-.       ",
"       .-@@@@@@@@@@@@@@-.       ",
"       .-@@@@@@@@@@@@@@-.       ",
"        .--@@@@@@@@@@--;        ",
"+  ++    .------------;    +++ +",
" ++  +     ..>>>>>>..      + ++ ",
"          .@@@@@@@@@@.          ",
"          .@-@@@@@@-@.          ",
"         .@@-@@--@@-@@.         ",
"         .@@-@>-,-@-@@.         ",
"         .@@-@>-->@-@@.         ",
"          ..@@@>>@@@..++        ",
"          '.@-....-@.'          ",
"         )!.@.!!!!.@.!)         ",
"         ~!..!!!!!!..!)         ",
"          {]^/(!!(/^_'          "};
