/* XPM */
static char * player_right_xpm[] = {
"32 32 32 1",
" 	c #ACDA4F",
".	c #7BA922",
"+	c #000000",
"@	c #B9A48F",
"#	c #241D0D",
"$	c #928263",
"%	c #82634B",
"&	c #8A7357",
"*	c #714333",
"=	c #A38D77",
"-	c #A67596",
";	c #8C7A67",
">	c #B59D85",
",	c #A3CF4B",
"'	c #89AE41",
")	c #7B9C3C",
"!	c #739139",
"~	c #708D37",
"{	c #729138",
"]	c #7A9A3B",
"^	c #88AC41",
"/	c #A2CE4B",
"(	c #708E38",
"_	c #6E8B37",
":	c #A4D04C",
"<	c #8DB242",
"[	c #7D9E3C",
"}	c #749339",
"|	c #6F8C37",
"1	c #7A9B3B",
"2	c #89AD41",
"3	c #A3CE4B",
"                                ",
"                                ",
"                                ",
".              ++       .       ",
"..            +@@+     ... ... .",
" .            +@@+     .  .  .. ",
"            ##+@@+##            ",
"          ##$$+@@+$$##          ",
"        ##%$$$+@@+$$$%##        ",
"      ##&#*%$$$$$$$$%*#&##      ",
"     #$&&#************#&&$#     ",
"     #$$$&%**********%$$$$#     ",
"      #$$$$$$$$$$$$$$$$$$#      ",
"       ###&$$$$$$$$$$&###       ",
"         ##############         ",
"         +==@@@@@@@@@@+         ",
"         +=@@@@@@@@+@@+         ",
"         +=@@@@@@@@+@@+         ",
"         +==@@@@@@@+@@-+        ",
"         +===@@@@@@@@@@+        ",
".  ..     +===@@@@@@@@@+   ... .",
" ..  .     +========@@+    . .. ",
"            ++;;;;++++          ",
"             +;;==+             ",
"          + +@@@@@@+            ",
"         +>+@@@@@@@+            ",
"         +=+@;@@@@@+ ..         ",
"          ++@;@@@@@+. ..        ",
"            +;@@@@+             ",
"        ,')!~+@@@@+{]^/         ",
"        (_____++++____(         ",
"        :<[}~|____~!123         "};
