/* XPM */
static char * player_back_xpm[] = {
"32 32 31 1",
" 	c #ACDA4F",
".	c #222124",
"+	c #B9A48F",
"@	c #7BA922",
"#	c #241D0D",
"$	c #928263",
"%	c #82634B",
"&	c #A99D86",
"*	c #8A7357",
"=	c #714333",
"-	c #A38D77",
";	c #000000",
">	c #8C7A67",
",	c #B59D85",
"'	c #A3CF4B",
")	c #89AE41",
"!	c #7B9C3C",
"~	c #6E8B37",
"{	c #88AC41",
"]	c #A2CE4B",
"^	c #708E38",
"/	c #A4D04C",
"(	c #8DB242",
"_	c #7D9E3C",
":	c #749339",
"<	c #708D37",
"[	c #6F8C37",
"}	c #739139",
"|	c #7A9B3B",
"1	c #89AD41",
"2	c #A3CE4B",
"                                ",
"            ..    ..            ",
"           .++.  .++.           ",
"@          .++.  .++.   @       ",
"@@         .++.##.++.  @@@ @@@ @",
" @        #.++.$$.++.# @  @  @@ ",
"        ##%.+&$$$$&+.%##        ",
"      ##*#=%$$$$$$$$%=#*##      ",
"     #$**#============#**$#     ",
"     #$$$*%==========%$$$$#     ",
"      #$$$$$$$$$$$$$$$$$$#      ",
"       ###*$$$$$$$$$$*###       ",
"       @.+############+.        ",
"       .++++++++++++++++.       ",
"       .++++++++++++++++.       ",
"       .-++++++++++++++-.       ",
"       .-++++++++++++++-.       ",
"       .-++++++++++++++-.       ",
"        .--++++++++++--;        ",
"         .------------;         ",
"@  @@     ...>>>>>>...     @@@ @",
" @@  @     .++++++++.      @ @@ ",
"          .++++++++++.          ",
"          .+-++++++-+.          ",
"         .++-++--++-++.         ",
"         .++-+>-,-+-++.         ",
"         .++-+>-->+-++.         ",
"          ..+++>>+++..@@        ",
"           .+-....-+.           ",
"        ')!.+.~~~~.+.{]         ",
"        ^~~..~~~~~~..~^         ",
"        /(_:<[~~~~<}|12         "};
