/* XPM */
static char * coin_xpm[] = {
"32 32 28 1",
" 	c #ACDA4F",
".	c #7BA922",
"+	c #FFC843",
"@	c #E1A322",
"#	c #D49000",
"$	c #E1A221",
"%	c #EBAF2F",
"&	c #FCC440",
"*	c #E5A827",
"=	c #DFA01F",
"-	c #E2A423",
";	c #E8AC2B",
">	c #EEB231",
",	c #E2A322",
"'	c #E4A626",
")	c #E9AC2C",
"!	c #DF9F1D",
"~	c #E8AC2C",
"{	c #E7AA2A",
"]	c #EDB231",
"^	c #E5A727",
"/	c #DD9C1A",
"(	c #E4A625",
"_	c #EAAE2E",
":	c #88A83C",
"<	c #85A33B",
"[	c #84A23A",
"}	c #64801D",
"                                ",
"                                ",
"                                ",
".                       .       ",
"..                     ... ... .",
" .                     .  .  .. ",
"           ++++++++++           ",
"          ++++++++++++          ",
"         ++++@####@++++         ",
"        +++$########$+++        ",
"       +++#####%&#####+++       ",
"      +++$###*&&&&&###$+++      ",
"      +++###=&&&&&&-###+++      ",
"      ++@###;&&>&#$####,++      ",
"      ++####'&&&&#######++      ",
"      ++#####&&&&&)#####++      ",
"      ++######!&&&&~####++      ",
"      ++#######>&{&&####++      ",
"      ++@###&&&&&]&&###,++      ",
"      +++###^&&&&&&/###+++      ",
".  .. +++$####(&&{####$+++ ... .",
" ..  . +++#####_&#####+++  . .. ",
"        +++$########$+++        ",
"         ++++,####,++++         ",
"          ++++++++++++          ",
"         :<++++++++++<:         ",
"       <[[[[[[}[[}}[[}}[<       ",
"       [[[[[[}[}}}[}}[}}[       ",
"       <[[[[[[[[}[[[[[[[<       ",
"         :<[[[[[[[[[[<:         ",
"                                ",
"                                "};
