/* XPM */
static char * coin2_xpm[] = {
"32 32 97 2",
"  	c #ACDA4F",
". 	c #7BA922",
"+ 	c #FFC843",
"@ 	c #FFC844",
"# 	c #FFC94B",
"$ 	c #FFCB5B",
"% 	c #FFCF71",
"& 	c #FFC847",
"* 	c #FFCA54",
"= 	c #FFCE6C",
"- 	c #FFD484",
"; 	c #FFDA9C",
"> 	c #FFE0B1",
", 	c #FFE5BF",
"' 	c #E2A532",
") 	c #D79840",
"! 	c #DAA463",
"~ 	c #DFB387",
"{ 	c #E5C4A5",
"] 	c #F0D5B8",
"^ 	c #FFE7C4",
"/ 	c #FFE8C8",
"( 	c #FFE9CA",
"_ 	c #E2A63E",
": 	c #D9A058",
"< 	c #DDAC77",
"[ 	c #E2BA93",
"} 	c #E7C7AB",
"| 	c #EBD2BC",
"1 	c #EDD6C3",
"2 	c #EDD8C5",
"3 	c #F2DBC4",
"4 	c #FFE6C2",
"5 	c #FFE3BA",
"6 	c #FFDFAB",
"7 	c #E9CEB6",
"8 	c #ECD4C0",
"9 	c #F6E0C6",
"0 	c #FEE8CA",
"a 	c #EDD7C4",
"b 	c #E6C4A6",
"c 	c #E0B58A",
"d 	c #FFD27D",
"e 	c #FFCE6A",
"f 	c #EAC496",
"g 	c #F4DEC7",
"h 	c #FEE8C9",
"i 	c #FEE7C7",
"j 	c #FEE4C0",
"k 	c #FDDFB1",
"l 	c #FDD89B",
"m 	c #D69633",
"n 	c #E1A329",
"o 	c #FFD894",
"p 	c #FFDFAC",
"q 	c #FFE4BB",
"r 	c #EED8C6",
"s 	c #F1DBC5",
"t 	c #FEE5C4",
"u 	c #FDE2BB",
"v 	c #FDDDAB",
"w 	c #FDD491",
"x 	c #FCCD73",
"y 	c #FCC859",
"z 	c #E2A632",
"A 	c #D49007",
"B 	c #D49000",
"C 	c #FFE8C7",
"D 	c #F2DDC6",
"E 	c #F2D3AE",
"F 	c #FDD183",
"G 	c #F0BC64",
"H 	c #FCC651",
"I 	c #D49113",
"J 	c #E1A221",
"K 	c #E2A322",
"L 	c #E8B469",
"M 	c #FCC549",
"N 	c #FCC441",
"O 	c #FCC440",
"P 	c #E9AC2C",
"Q 	c #FFD487",
"R 	c #D59322",
"S 	c #DF9F1D",
"T 	c #E8AC2C",
"U 	c #EEB231",
"V 	c #E7AA2A",
"W 	c #E1A322",
"X 	c #EDB231",
"Y 	c #E5A727",
"Z 	c #DD9C1A",
"` 	c #E4A625",
" .	c #EAAE2E",
"..	c #88A83C",
"+.	c #85A33B",
"@.	c #84A23A",
"#.	c #64801D",
"                                                                ",
"                                                                ",
"                                                                ",
".                                               .               ",
". .                                           . . .   . . .   . ",
"  .                                           .     .     . .   ",
"                      + + + + + + @ # $ %                       ",
"                    + + + + + & * = - ; > ,                     ",
"                  + + + @ ' ) ! ~ { ] ^ / ( (                   ",
"                + + & _ : < [ } | 1 2 2 3 4 5 6                 ",
"              @ # $ ! ~ { 7 8 9 0 a 8 7 b c d e *               ",
"            * = - f } | 1 g h i j k l < : m n @ + +             ",
"            o p q 8 a r s t u v w x y z A B B + + +             ",
"            4 C D 2 1 | E l F G H I J B B B B K + +             ",
"            ( / 8 7 { ~ L y M N O B B B B B B B + +             ",
"            , > [ < : m I O O O O O P B B B B B + +             ",
"            Q % ) R A B B B S O O O O T B B B B + +             ",
"            # @ B B B B B B B U O V O O B B B B + +             ",
"            + + W B B B O O O O O X O O B B B K + +             ",
"            + + + B B B Y O O O O O O Z B B B + + +             ",
".     . .   + + + J B B B B ` O O V B B B B J + + +   . . .   . ",
"  . .     .   + + + B B B B B  .O B B B B B + + +     .   . .   ",
"                + + + J B B B B B B B B J + + +                 ",
"                  + + + + K B B B B K + + + +                   ",
"                    + + + + + + + + + + + +                     ",
"                  ..+.+ + + + + + + + + + +...                  ",
"              +.@.@.@.@.@.@.#.@.@.#.#.@.@.#.#.@.+.              ",
"              @.@.@.@.@.@.#.@.#.#.#.@.#.#.@.#.#.@.              ",
"              +.@.@.@.@.@.@.@.@.#.@.@.@.@.@.@.@.+.              ",
"                  ..+.@.@.@.@.@.@.@.@.@.@.+...                  ",
"                                                                ",
"                                                                "};
