/* XPM */
static char * coin3_xpm[] = {
"32 32 113 2",
"  	c #ACDA4F",
". 	c #7BA922",
"+ 	c #FFC843",
"@ 	c #E1A322",
"# 	c #D49000",
"$ 	c #E1A221",
"% 	c #EBAF2F",
"& 	c #FCC440",
"* 	c #E5A827",
"= 	c #DFA01F",
"- 	c #E2A423",
"; 	c #E8AC2B",
"> 	c #EEB231",
", 	c #E2A322",
"' 	c #FFC844",
") 	c #FFC847",
"! 	c #E4A626",
"~ 	c #D49113",
"{ 	c #D69633",
"] 	c #FFCE6A",
"^ 	c #FFD27D",
"/ 	c #E9AC2C",
"( 	c #D49007",
"_ 	c #D59322",
": 	c #D79840",
"< 	c #DAA463",
"[ 	c #DFB387",
"} 	c #FFDFAB",
"| 	c #FFE3BA",
"1 	c #DF9F1D",
"2 	c #FCC441",
"3 	c #FCC549",
"4 	c #FCC859",
"5 	c #EBB867",
"6 	c #DDAE7B",
"7 	c #E2BB95",
"8 	c #E7C7AB",
"9 	c #EBD2BC",
"0 	c #FFE8C7",
"a 	c #FFE9CA",
"b 	c #EFB750",
"c 	c #FCCB6C",
"d 	c #ECBE7C",
"e 	c #FDD79B",
"f 	c #FDDEB0",
"g 	c #EAD0BA",
"h 	c #ECD4C0",
"i 	c #EDD7C4",
"j 	c #EED8C6",
"k 	c #FFE8C8",
"l 	c #FFE7C4",
"m 	c #FCC651",
"n 	c #FCCB6A",
"o 	c #FDD183",
"p 	c #FDDEAE",
"q 	c #F6DBB9",
"r 	c #FEE5C4",
"s 	c #FEE7C8",
"t 	c #EDD8C6",
"u 	c #EDD6C3",
"v 	c #F1D8BE",
"w 	c #FFE1B1",
"x 	c #FFDA9D",
"y 	c #D69532",
"z 	c #D89C4E",
"A 	c #DBA567",
"B 	c #ECC28B",
"C 	c #FDDDAB",
"D 	c #FDE2BB",
"E 	c #FEE5C3",
"F 	c #FEE7C7",
"G 	c #FEE8C9",
"H 	c #F0DAC4",
"I 	c #EBD3BE",
"J 	c #E9CDB5",
"K 	c #E5C4A5",
"L 	c #FFD791",
"M 	c #FFD074",
"N 	c #FFCB5B",
"O 	c #FFC94B",
"P 	c #E8BD88",
"Q 	c #E4C1A0",
"R 	c #E8C9AE",
"S 	c #EBD2BD",
"T 	c #F4DEC7",
"U 	c #F4DCC1",
"V 	c #E9CEB6",
"W 	c #E6C4A6",
"X 	c #E0B58A",
"Y 	c #DCA86F",
"Z 	c #E4AD5B",
"` 	c #FFCA54",
" .	c #FFDA9C",
"..	c #FFE6C1",
"+.	c #F4D9B9",
"@.	c #E2B992",
"#.	c #DDAC77",
"$.	c #D9A058",
"%.	c #FFE9C8",
"&.	c #F2DBC4",
"*.	c #E2BA93",
"=.	c #D9A15B",
"-.	c #FFE1B4",
";.	c #FFDDA7",
">.	c #FFD78F",
",.	c #E6B268",
"'.	c #FFD177",
").	c #FFCD64",
"!.	c #FFCA53",
"~.	c #88A83C",
"{.	c #85A33B",
"].	c #84A23A",
"^.	c #64801D",
"                                                                ",
"                                                                ",
"                                                                ",
".                                               .               ",
". .                                           . . .   . . .   . ",
"  .                                           .     .     . .   ",
"                      + + + + + + + + + +                       ",
"                    + + + + + + + + + + + +                     ",
"                  + + + + @ # # # # @ + + + +                   ",
"                + + + $ # # # # # # # # $ + + +                 ",
"              + + + # # # # # % & # # # # # + + +               ",
"            + + + $ # # # * & & & & & # # # $ + + +             ",
"            + + + # # # = & & & & & & - # # # + + +             ",
"            + + @ # # # ; & & > & # $ # # # # , ' )             ",
"            + + # # # # ! & & & & # # # # # ~ { ] ^             ",
"            + + # # # # # & & & & & / ( _ : < [ } |             ",
"            + + # # # # # # 1 & 2 3 4 5 6 7 8 9 0 a             ",
"            + + # # # # # ( _ b c d e f g h i j k l             ",
"            + + @ # ( ~ m n o e p q r s j t u v w x             ",
"            + + ) y z A B C D E F G G H I J K L M N             ",
".     . .   O N M P Q R S u T G F U V W X Y Z ` ) +   . . .   . ",
"  . .     .    .w ..u i j i h +.p @.#.$.{ ~ ' + +     .   . .   ",
"                k a %.&.9 8 *.#.=.: _ ( $ + + +                 ",
"                  ..-.;.>.,.: _ ( # , + + + +                   ",
"                    '.).!.) + + + + + + + +                     ",
"                  ~.{.' + + + + + + + + + {.~.                  ",
"              {.].].].].].].^.].].^.^.].].^.^.].{.              ",
"              ].].].].].].^.].^.^.^.].^.^.].^.^.].              ",
"              {.].].].].].].].].^.].].].].].].].{.              ",
"                  ~.{.].].].].].].].].].].{.~.                  ",
"                                                                ",
"                                                                "};
