/* XPM */
static char * enemy_xpm[] = {
"32 32 83 1",
" 	c #ACDA4F",
".	c #7BA922",
"+	c #9AA9B4",
"@	c #97A3B7",
"#	c #C1CCDE",
"$	c #A8CF72",
"%	c #8D9DA3",
"&	c #BCC8DB",
"*	c #E6DF9C",
"=	c #837B37",
"-	c #D6CA5D",
";	c #8998B0",
">	c #8E9EB9",
",	c #8997AD",
"'	c #A1A8AD",
")	c #BEBC9A",
"!	c #D5CC78",
"~	c #988F41",
"{	c #AAA049",
"]	c #E0D889",
"^	c #DCD37B",
"/	c #A79D47",
"(	c #8998AF",
"_	c #C9BE57",
":	c #677DA1",
"<	c #525C6D",
"[	c #B0BCD0",
"}	c #5F7290",
"|	c #878E90",
"1	c #77859A",
"2	c #CCC15D",
"3	c #696A5C",
"4	c #C6BF80",
"5	c #4C5666",
"6	c #4D5767",
"7	c #ABA678",
"8	c #646454",
"9	c #4B5565",
"0	c #989467",
"a	c #D7CB61",
"b	c #E3DB92",
"c	c #475161",
"d	c #485261",
"e	c #485262",
"f	c #D9CE6D",
"g	c #9E9757",
"h	c #E3DB93",
"i	c #B3A94D",
"j	c #333A47",
"k	c #DFD685",
"l	c #DBD47D",
"m	c #8D973D",
"n	c #8F9A3E",
"o	c #8E973D",
"p	c #5A6F4C",
"q	c #4E6048",
"r	c #435248",
"s	c #364046",
"t	c #343C47",
"u	c #3B4845",
"v	c #8B913C",
"w	c #818733",
"x	c #818833",
"y	c #929B44",
"z	c #E2DF98",
"A	c #DADE8E",
"B	c #B5AE60",
"C	c #84A83B",
"D	c #83A73A",
"E	c #39414E",
"F	c #383F4D",
"G	c #5D8117",
"H	c #608519",
"I	c #847E38",
"J	c #D4D48C",
"K	c #B4AD5F",
"L	c #82A63A",
"M	c #837C37",
"N	c #86AA3C",
"O	c #A3CF4B",
"P	c #91B841",
"Q	c #88AD3D",
"R	c #83A63A",
"                                ",
"                                ",
"                                ",
".                       .       ",
"..                     ... ... .",
" .                     .  .  .. ",
"                                ",
"                                ",
"           +@#######            ",
"         $%###&#######    *     ",
"         $%###&#######    *     ",
"      =-#;;;;;;;;>#;,')*-!~     ",
"      ={]*;;;;;;;;;;**^*-==     ",
"       =~/*;;(;;;;;;*^_~==      ",
"      :#===;;;<<<<<<====;:      ",
"      <[===;<<<<<<<<<===;;      ",
"      };;|1<<<***2<<<3==;;      ",
"      ;;<<<<<<=4*=5<<<<<;;      ",
"      <<<<<<<<====<<<<<<<<      ",
"      <<<<<<<<====<<<<<<<<      ",
".  .. <<<<<<<<===<<<<<<<<< ... .",
" ..  .<<<<3<<<<<<<<<<<<<<6 . .. ",
"       <7**-89<<<<<0a*b5c       ",
"       d*---=e<5555--fbgd       ",
"        h-={=cccccc==i**        ",
"       *-===jjjjjjj====k        ",
"      *lmnopqrsttsuqvwxyz       ",
"      AB==CDEjjjjjjFGCH=I       ",
"      JK==LLEjjjjjjFLLL=MN      ",
"      NLLLLLLLLLLLLLLLLLLN      ",
"       OPQCDRLLLLLLRDCQPO       ",
"                                "};
